# xmcd
#
# Track frame offsets:
#	150
#	10560
#	22964
#	30683
#	42654
#	56996
#	66484
#	75934
#	85365
#	95278
#	100238
#	109338
#	119262
#	127365
#	135883
#	147963
#	156520
#	164101
#	175231
#	188679
#	199526
#	210142
#	221179
#	230606
#	247434
#	253036
#	259901
#	267088
#	279516
#	288360
#
# Disc length: 3970 seconds
# Revision: 0
# Processed by: cddbd v1.5.2PL0 Copyright (c) Steve Scherf et al.
# Submitted via: dBpowerAMP V12.0
#
DISCID=c40f801e
DTITLE=Various Artist - Appalachian Bluegrass Collection - 80 Classic Power Picks
DYEAR=2007
DGENRE=Country
TTITLE0=Earl Taylor - Foggy Mountain Top
TTITLE1=Earl Taylor - Girl I Left In Sunny Tennessee
TTITLE2=Earl Taylor - Froggie Went A Courtin'
TTITLE3=The Cumberlands - Cumberland Gap
TTITLE4=Earl Taylor - Black Mountain Blues
TTITLE5=Earl Taylor - Home Across The Blue Ridge Mountains
TTITLE6=Earl Taylor - Poor Ellen Smith
TTITLE7=Earl Taylor - Where The Soul Of Man Never Dies
TTITLE8=Mac Wiseman - Grandfather's Clock
TTITLE9=Earl Taylor - Big Sandy
TTITLE10=Earl Taylor - Worried Man Blues
TTITLE11=Earl Taylor - Deep Elm Blue
TTITLE12=Earl Taylor - Wild Bill Jones
TTITLE13=Mac Wiseman - Rovin' Gambler
TTITLE14=The Cumberlands with Michael Cleveland - Soldier's Joy
TTITLE15=Earl Taylor - Darling Corey
TTITLE16=Earl Taylor - Fly Around My Pretty Little Miss
TTITLE17=Earl Taylor - When The Bees Are In The Hive
TTITLE18=Earl Taylor - Bread And Gravy
TTITLE19=The Cumberlands with Michael Cleveland - Run Boy Run
TTITLE20=Earl Taylor - Gathering Flowers From The Hillside
TTITLE21=Earl Taylor - Mole In The Ground
TTITLE22=Earl Taylor - Long Journey Home
TTITLE23=The Cumberlands - Rebel Soldier
TTITLE24=Earl Taylor - Fire On The Mountain
TTITLE25=Earl Taylor - The Tie That Binds
TTITLE26=Frosty Mountain Boys - Rabbit In The Log
TTITLE27=Earl Taylor - All The Good Times Are Past And Gone
TTITLE28=Mac Wiseman - Just Over In Glory Land
TTITLE29=Earl Taylor - Amazing Grace
EXTD=
EXTT0=
EXTT1=
EXTT2=
EXTT3=
EXTT4=
EXTT5=
EXTT6=
EXTT7=
EXTT8=
EXTT9=
EXTT10=
EXTT11=
EXTT12=
EXTT13=
EXTT14=
EXTT15=
EXTT16=
EXTT17=
EXTT18=
EXTT19=
EXTT20=
EXTT21=
EXTT22=
EXTT23=
EXTT24=
EXTT25=
EXTT26=
EXTT27=
EXTT28=
EXTT29=
PLAYORDER=
